<svg width="281.983" height="281.983" xmlns="http://www.w3.org/2000/svg">

 <g>
  <title>background</title>
  <rect fill="none" id="canvas_background" height="402" width="582" y="-1" x="-1"/>
 </g>
 <g>
  <title>Layer 1</title>
  <g id="svg_1">
   <path transform="rotate(90, 140.992, 140.993)" id="svg_3" fill="#56aaff" d="m173.031006,29.851c-58.699997,-7.299999 -140.100006,2.500002 -165.399996,65.9c-10.6,26.400002 -12.9,63.900002 11.200001,84.900002c28.299997,24.600006 65.599997,19.699997 100.599997,21.100006l0,0c0.800003,16.100998 5.600006,33.199997 10.500008,48.199997c1.699997,5.300003 7.899994,5.5 11,1.399994c6.200989,-8.199997 8.899994,-18.800995 11.5,-28.600998c1.299988,-5 4.899002,-12.800003 4.599991,-18.699997c0.699997,0 1.300003,0 2.100998,-0.300003c47,-17.300003 114.19902,-0.399002 122.19902,-66.5c7.699982,-62.899002 -54.19902,-100.700001 -108.300018,-107.399zm90.5,127.598997c-14.699997,33.199997 -78.5,23 -107.699997,34.100006c-3.100006,1.199997 -4.300003,4 -4.199005,6.600998c-7.300995,1.300003 -8.100998,10.399002 -9.600998,16.5c-1.399994,5.5 -2.699997,11.300003 -4.599991,16.899002c-3.200012,-12.800003 -5.900009,-25.800003 -11.100006,-37.600006c-1.199997,-2.699997 -4.5,-2.199997 -6.099998,-0.300003c-20.300003,-4.699997 -40,-5 -60.600002,-7.899994c-61.099998,-8.399002 -52.099998,-75.699997 -23.699997,-109.800011c32.499996,-39 98.500004,-40.099991 144.200993,-32.399998c51.899002,8.80101 109.499985,54.900005 83.399002,113.900005z"/>
   <path id="svg_4" fill="#56aaff" d="m165.333954,45.510078c-1.600006,-4.300003 -7.399994,-5.599998 -10,-1.300003c-5,8.300003 -3.600006,21.5 -4.100006,30.800003c-0.299988,5.099998 -0.699997,10.600006 -1,16.100006c-5.100006,0.799988 -10.100006,1.199997 -15.299988,1.599991c0,-4.099991 -0.100006,-8.199997 -0.100006,-12.299995c0,-6.700005 0.300003,-13.5 0.600006,-20.200005c0.099991,-2.899994 0.399994,-5.799995 0.899994,-8.699997c0.800003,-4.300003 1.800003,-3.099998 -0.899994,-1.800003c3.399994,-1.699997 3.599991,-7.599998 0,-9.299995c-21.300003,-9.599998 -12.400009,67.299995 -11.700012,76.999985c0.5,7 10.5,7 10.800003,0c0.300003,-5.10099 0.300003,-10.10099 0.300003,-15.199989c5,0.300003 10.100006,0.400009 15.199997,0.199997c0.199997,5.5 0.900009,10.800003 2.5,15.700005c0.599991,1.898987 2.199997,3.898987 4.300003,4.299988c2.100006,0.399017 4.399994,0.300018 6.100006,-1c1.199982,-0.899994 1.299988,-2.199982 0.799988,-3.100983c1.100006,-3.89901 0.300003,-7.800011 0.100006,-12.198997c-0.200012,-8.5 0.100006,-17.100006 0.5,-25.600006c0.799988,-10.5 4.799988,-25 1,-35z"/>
   <path id="svg_5" fill="#56aaff" d="m210.670166,58.256058c-0.100006,-0.199997 -0.299988,-0.400002 -0.399994,-0.599998c-1.700012,-2.300003 -3.600006,-2.900002 -6.300003,-2.599998c-3.199997,0.399994 -6.5,0.5 -9.800003,0.699997c-1.600006,-0.900002 -3.899994,-0.400002 -4.699997,1.400002c-1.5,1.299995 -1.800003,3.5 -1.099991,5.199997c-3.600006,22.5 -3.900009,46.099998 -4.100006,68.698997c0,3.699997 2.899994,5.900009 6.199997,6.199997c8.5,0.900009 19.800003,-0.699997 19.099991,-11.699997c-0.199982,-3.399002 -3.699982,-5.800003 -6.899994,-4c-2.399994,1.400009 -4,2.400009 -5.799988,2.900009c0.099991,-4 0.199982,-8 0.399994,-12c1.399994,0.199997 2.799988,0.299988 4.100006,0.5c2.799988,0.399994 4.699982,-0.300003 6.399994,-2.600006l0.100006,-0.100998c1,-1.300003 1,-4.100006 0,-5.399002l-0.100006,-0.100006c-1.700012,-2.199997 -3.600006,-3 -6.399994,-2.599991c-1.200012,0.199997 -2.5,0.300003 -3.800018,0.399994c0.400009,-12.499992 0.5,-24.999992 -0.899994,-37.199997c2.399994,0.099998 4.899994,0.200005 7.200012,0.599998c2.699982,0.400002 4.699982,-0.299995 6.299988,-2.599998c0.100006,-0.199997 0.300003,-0.400002 0.399994,-0.599998c0.900009,-1.098999 0.900009,-3.299004 0.100006,-4.499001z"/>
   <path id="svg_6" fill="#56aaff" d="m169.338501,224.669434c-2.600006,-0.800003 -5.300003,-1.199997 -8,-1.699997c-0.399002,-19.298996 -1.699005,-38.899002 -4,-58c-0.600006,-5.199997 -7.5,-5.199997 -8.100006,0c-2.300003,20.899994 -0.599991,42.399994 -0.599991,63.300003c0,2.898987 2,5.398987 4.699997,6.19899c5.399994,1.5 10.399994,2.699997 15.899994,1.100998c5.600006,-1.599991 5.401016,-9.298996 0.100006,-10.899994z"/>
   <path d="m128.619232,206.596436c-1.30101,0.600998 -2.400009,1.399994 -3.5,1.899994c0.099991,-21.800003 0.69899,-43.899994 -4.5,-65.199982c-1,-4.200012 -7.600998,-3.300003 -7.5,1c0.69899,23.600006 -0.400009,47 -0.80101,70.599991c0,3 2,5.19899 4.700012,6.19899c8,3 15.5,1.30101 19.100998,-7c2.19899,-4.998993 -2.199997,-9.998993 -7.5,-7.498993z"/>
   <path d="m128.619232,206.596436c-1.30101,0.600998 -2.400009,1.399994 -3.5,1.899994c0.099991,-21.800003 0.69899,-43.899994 -4.5,-65.199982c-1,-4.200012 -7.600998,-3.300003 -7.5,1c0.69899,23.600006 -0.400009,47 -0.80101,70.599991c0,3 2,5.19899 4.700012,6.19899c8,3 15.5,1.30101 19.100998,-7c2.19899,-4.998993 -2.199997,-9.998993 -7.5,-7.498993z"/>
   <path d="m128.619232,206.596436c-1.30101,0.600998 -2.400009,1.399994 -3.5,1.899994c0.099991,-21.800003 0.69899,-43.899994 -4.5,-65.199982c-1,-4.200012 -7.600998,-3.300003 -7.5,1c0.69899,23.600006 -0.400009,47 -0.80101,70.599991c0,3 2,5.19899 4.700012,6.19899c8,3 15.5,1.30101 19.100998,-7c2.19899,-4.998993 -2.199997,-9.998993 -7.5,-7.498993z"/>
   <path id="svg_7" fill="#56aaff" d="m128.619232,206.596436c-1.30101,0.600998 -2.400009,1.399994 -3.5,1.899994c0.099991,-21.800003 0.69899,-43.899994 -4.5,-65.199982c-1,-4.200012 -7.600998,-3.300003 -7.5,1c0.69899,23.600006 -0.400009,47 -0.80101,70.599991c0,3 2,5.19899 4.700012,6.19899c8,3 15.5,1.30101 19.100998,-7c2.19899,-4.998993 -2.199997,-9.998993 -7.5,-7.498993z"/>
   <path id="svg_8" fill="#56aaff" d="m208.716507,148.507385c-3.900009,-5.299988 -12,-2 -11.800003,3.200012c-0.199997,0 -0.300003,0 -0.600998,0c-2.800003,-0.100006 -4.100006,2.399994 -5.300003,4.399994c-3.899002,6.699997 -5.800003,15.199997 -7.600006,22.600006c-2.899994,11.899994 -6.299988,31.799988 6.5,39.19899c14.800003,8.600998 24.600006,-10.800003 26.200012,-22.099991c2.100998,-13.999008 1.401001,-35.399002 -7.399002,-47.299011zm-5.900009,50.400009c-0.600006,2.5 -4.699005,11.399994 -7.800003,6.5c-5,-8 0.100998,-24.199005 2,-32.5c1,-4.300003 2.100998,-8.600006 3.300003,-12.900009c0,-0.099991 0,-0.199997 0.100998,-0.299988c2.800003,7 3.5,15.5 3.800003,22.5c0.299011,5.500992 -0.099991,11.199997 -1.401001,16.699997z"/>
  </g>
  <g id="svg_9"/>
  <g id="svg_10"/>
  <g id="svg_11"/>
  <g id="svg_12"/>
  <g id="svg_13"/>
  <g id="svg_14"/>
  <g id="svg_15"/>
  <g id="svg_16"/>
  <g id="svg_17"/>
  <g id="svg_18"/>
  <g id="svg_19"/>
  <g id="svg_20"/>
  <g id="svg_21"/>
  <g id="svg_22"/>
  <g id="svg_23"/>
 </g>
</svg>